<svg fill="none" height="41" viewBox="0 0 40 41" width="40" xmlns="http://www.w3.org/2000/svg" xmlns:xlink="http://www.w3.org/1999/xlink"><clipPath id="a"><path d="m0 0h40v41h-40z"/></clipPath><g clip-path="url(#a)" fill="#ffc700"><path d="m33.5306 23.7016c0 2.8739-1.143 5.6301-3.1774 7.6623s-4.7937 3.1738-7.6708 3.1738c-2.4063 0-4.6351-.7881-6.4299-2.1081l15.1676-15.1509c1.3215 1.7929 2.1105 4.0192 2.1105 6.4229z"/><path d="m33.3925 31.346 2.2682-5.4575 4.3393 5.0043z"/><path d="m35.6607 21.5738-2.2485-5.4772 6.5878.4728z"/><path d="m24.8521 36.6655 5.4635-2.2657-.4734 6.6002z"/><path d="m15.0493 34.3998 5.4635 2.2657-4.9901 4.3148z"/><path d="m33.6686 3.99952 2.8205 2.81739-30.71 30.67609-2.82051-2.8174z"/><path clip-rule="evenodd" d="m18.5602 6.95483 2.9191 1.83229-1.0059-3.29024 2.6627-2.22634-3.4122-.0591-1.3215-3.21144-1.144 3.25084-3.4517.23643 2.7416 2.08841-.8284 3.34935zm-5.8778 7.50647 2.288 1.4383-.7889-2.581 2.071-1.7141-2.6825-.0591-1.0059-2.50215-.8876 2.54155-2.68242.1773 2.14992 1.6353-.6706 2.6007z" fill-rule="evenodd"/><path d="m10.8481 1.04421c-3.53055 2.26574-5.91713 6.26526-5.91713 10.83609 0 4.5709 2.38658 8.5704 5.97633 10.8362-6.05523 0-10.9073-4.8467-10.9073-10.8362 0-2.87388 1.14292-5.63009 3.17734-7.66226s4.79368-3.17383 7.67076-3.17383z"/></g></svg>